<svg xmlns="http://www.w3.org/2000/svg" xmlns:xlink="http://www.w3.org/1999/xlink" width="585" zoomAndPan="magnify" viewBox="0 0 438.75 252.749989" height="337" preserveAspectRatio="xMidYMid meet" version="1.0"><path fill="#ffffff" d="M 381.433594 245.179688 L 432.179688 215.222656 L 4.542969 215.425781 C 19.433594 226.015625 30.867188 233.945312 46.910156 245.160156 C 46.910156 245.160156 278.742188 244.308594 381.433594 245.179688 Z M 381.433594 245.179688 " fill-opacity="1" fill-rule="nonzero"/><path fill="#ffffff" d="M 98.03125 7.460938 L 94.789062 13.914062 C 80.753906 41.824219 76.445312 72.441406 82.265625 102.9375 C 90.082031 143.917969 116.476562 179.289062 154.109375 199.222656 L 158.980469 201.804688 L 277.167969 201.835938 L 280.535156 200.140625 C 288.964844 195.894531 298.695312 189.523438 305.925781 183.511719 L 310.101562 180.042969 L 314.761719 180.285156 C 320.53125 180.585938 323.445312 179.792969 333.355469 175.203125 C 347.21875 168.789062 355.949219 165.992188 373.378906 162.390625 C 380.078125 161.003906 387.828125 159.117188 390.601562 158.195312 C 407.523438 152.589844 419.640625 142.976562 425.539062 130.472656 C 428.542969 124.109375 429.382812 120.378906 429.386719 113.421875 C 429.390625 108.808594 429.160156 106.773438 428.300781 103.773438 C 424.109375 89.1875 411.59375 77.898438 396.035156 74.675781 C 387.566406 72.921875 377.074219 73.953125 368.683594 77.363281 C 365.027344 78.847656 364.851562 78.859375 364.851562 77.597656 C 364.851562 76.144531 363.425781 69.480469 362.5625 66.917969 C 361.285156 63.101562 358.578125 57.585938 356.355469 54.265625 C 354.550781 51.570312 354.007812 50.152344 352.894531 45.222656 C 350.402344 34.183594 345.441406 20.984375 340.078125 11.125 L 338.222656 7.714844 L 218.128906 7.59375 Z M 321.726562 54.085938 C 326.125 54.164062 330.828125 55.65625 334.574219 58.15625 C 343.835938 64.339844 348.019531 75.21875 346.890625 90.195312 C 346.355469 97.328125 346.703125 99.035156 349.203125 101.535156 C 353.117188 105.449219 357.3125 105.292969 363.3125 101.011719 C 367.511719 98.019531 373.65625 94.792969 377.679688 93.46875 C 390.285156 89.320312 403.941406 94.363281 409.226562 105.121094 C 410.824219 108.371094 410.898438 108.761719 410.898438 113.890625 C 410.898438 118.980469 410.8125 119.425781 409.28125 122.5625 C 407.375 126.453125 402.882812 131.449219 398.78125 134.234375 C 394.84375 136.910156 387.917969 140.0625 382.636719 141.585938 C 380.222656 142.285156 373.757812 143.753906 368.261719 144.859375 C 351.144531 148.296875 339.84375 151.96875 325.058594 158.902344 C 320.996094 160.808594 317.253906 162.367188 316.746094 162.367188 C 316.238281 162.367188 315.394531 162.058594 314.875 161.679688 C 313.992188 161.03125 313.910156 160.089844 313.625 147.1875 C 313.265625 131.140625 312.667969 126.382812 309.457031 114.140625 C 304.175781 94.003906 303.121094 87.5 303.632812 78.324219 C 304.527344 62.402344 310.882812 53.890625 321.726562 54.085938 Z M 321.726562 54.085938 " fill-opacity="1" fill-rule="nonzero"/><path fill="#ffffff" d="M 89.792969 165.28125 C 92.472656 164.695312 97.386719 163.132812 97.585938 163.011719 C 97.785156 162.890625 96.671875 161.101562 95.105469 159.042969 C 93.542969 156.980469 91.199219 153.691406 89.898438 151.734375 C 87.980469 148.84375 87.347656 148.21875 86.53125 148.417969 C 81.425781 149.675781 69.007812 150.007812 61.90625 147.953125 C 45.75 143.273438 32.621094 130.113281 27.921875 113.890625 C 22.707031 95.902344 27.753906 76.886719 41.195312 63.886719 C 48.195312 57.113281 54.921875 53.425781 64.992188 50.84375 L 72.832031 49.496094 L 73.699219 45.476562 C 74.175781 43.265625 75.171875 39.429688 75.914062 36.949219 L 77.261719 32.445312 L 75.660156 32.445312 C 74.777344 32.445312 66.382812 33.617188 64.140625 34.035156 C 27.265625 40.867188 3.132812 76.472656 10.585938 113.042969 C 13.253906 126.136719 19.253906 137.363281 28.597656 146.746094 C 39.542969 157.734375 52.371094 164.070312 68.109375 166.257812 C 73.328125 166.980469 84.277344 166.488281 89.792969 165.28125 Z M 89.792969 165.28125 " fill-opacity="1" fill-rule="nonzero"/></svg>